<?xml version="1.0" encoding="utf-8"?>
<!-- Generator: Adobe Illustrator 21.0.0, SVG Export Plug-In . SVG Version: 6.00 Build 0)  -->
<svg version="1.1" id="Social_Icons" xmlns="http://www.w3.org/2000/svg" xmlns:xlink="http://www.w3.org/1999/xlink" x="0px"
	 y="0px" viewBox="0 0 128 128" style="enable-background:new 0 0 128 128;" xml:space="preserve">
<style type="text/css">
	.st0{fill:#1D1D1D;}
	.st1{fill:none;}
	.st2{fill:#FFCB08;}
</style>
<rect x="26.5" y="19.3" class="st0" width="77.5" height="92.3"/>
<g id="_x31__stroke">
	<g id="Skype_1_">
		<rect class="st1" width="128" height="128"/>
		<path id="Skype" class="st2" d="M96,93.4c-2.8,3.9-7,7.1-12.4,9.3c-5.4,2.2-11.8,3.3-19.1,3.3c-8.8,0-16.1-1.5-21.9-4.5
			c-4.1-2.2-7.5-5.1-10-8.8c-2.6-3.7-3.9-7.3-3.9-10.9c0-2.2,0.9-4.1,2.5-5.7c1.7-1.6,3.8-2.3,6.4-2.3c2.1,0,3.9,0.6,5.4,1.8
			c1.4,1.2,2.6,2.9,3.6,5.2c1.1,2.4,2.3,4.5,3.5,6.1s2.9,2.9,5.1,3.9c2.2,1,5.2,1.6,8.9,1.6c5.1,0,9.2-1.1,12.3-3.2
			c3-2,4.5-4.5,4.5-7.5c0-2.4-0.8-4.2-2.4-5.7c-1.7-1.5-3.9-2.7-6.5-3.5c-2.8-0.8-6.5-1.8-11.2-2.7c-6.3-1.3-11.7-2.9-16-4.7
			c-4.4-1.8-7.9-4.4-10.5-7.6c-2.6-3.2-4-7.3-4-12.1c0-4.5,1.4-8.6,4.1-12.2c2.7-3.5,6.7-6.3,11.9-8.1c5.1-1.8,11.1-2.8,17.9-2.8
			c5.4,0,10.2,0.6,14.2,1.9c4,1.2,7.4,2.9,10.1,4.9c2.7,2.1,4.7,4.3,5.9,6.6c1.3,2.3,1.9,4.6,1.9,6.9c0,2.2-0.8,4.1-2.5,5.8
			S90,51,87.5,51c-2.3,0-4-0.5-5.3-1.6c-1.1-1-2.3-2.6-3.7-4.8c-1.5-2.8-3.4-5.1-5.5-6.7c-2.1-1.5-5.5-2.3-10.2-2.3
			c-4.4,0-7.9,0.9-10.6,2.6c-2.5,1.6-3.8,3.5-3.8,5.8c0,1.4,0.4,2.5,1.2,3.5c0.9,1.1,2.1,2,3.6,2.7c1.6,0.8,3.3,1.4,4.9,1.9
			c1.7,0.5,4.5,1.2,8.4,2c4.9,1,9.5,2.2,13.5,3.5c4.1,1.3,7.6,2.8,10.5,4.7s5.2,4.3,6.9,7.2c1.6,2.9,2.5,6.5,2.5,10.6
			C100.3,85,98.8,89.5,96,93.4z M124.3,77.6c0.9-4.2,1.4-8.5,1.4-12.9c0-33.2-27.3-60.2-61-60.2c-3.6,0-7,0.3-10.4,0.9
			C48.8,2,42.3,0,35.4,0C15.8,0,0,15.6,0,34.9c0,6.4,1.8,12.5,4.9,17.7c-0.8,3.9-1.2,8-1.2,12.1c0,33.3,27.3,60.2,61.1,60.2
			c3.8,0,7.6-0.3,11.2-1c5,2.6,10.7,4.1,16.7,4.1c19.6,0,35.4-15.6,35.4-34.9C128,87.5,126.7,82.3,124.3,77.6z"/>
	</g>
</g>
</svg>
