<?xml version="1.0" encoding="utf-8"?>
<!-- Generator: Adobe Illustrator 21.0.0, SVG Export Plug-In . SVG Version: 6.00 Build 0)  -->
<svg version="1.1" id="Layer_1" xmlns="http://www.w3.org/2000/svg" xmlns:xlink="http://www.w3.org/1999/xlink" x="0px" y="0px"
	 viewBox="0 0 700 700" style="enable-background:new 0 0 700 700;" xml:space="preserve">
<style type="text/css">
	.st0{fill:#FFCB08;}
	.st1{fill:#1D1D1D;}
</style>
<circle class="st0" cx="350" cy="350" r="350"/>
<path class="st1" d="M218.2,150.7c0,0-16.6,5.1-40.6,29.1s-26.4,46.2-26.4,46.2s6.8,93.6,117.8,204.6
	c111,111,205.4,118.6,205.4,118.6s23.3-5.2,45.9-27.8c22.6-22.6,28.6-40.1,28.6-40.1s-3.5-26-37.8-60.4
	c-34.3-34.3-59.8-37.3-59.8-37.3s-16.4,10.4-21,14.7c-6.4,6-17.5,32.1-17.5,32.1s-45.6,0-92.8-47.2c-47.2-47.2-49.2-92.8-49.2-92.8
	s27.6-11.1,34.1-17.6c4.5-4.5,15.4-20.3,15.4-20.3s-3.6-26.1-37.8-60.4C248,158,218.2,150.7,218.2,150.7z"/>
</svg>
