<?xml version="1.0" standalone="no"?>
<!DOCTYPE svg PUBLIC "-//W3C//DTD SVG 20010904//EN"
 "http://www.w3.org/TR/2001/REC-SVG-20010904/DTD/svg10.dtd">
<svg version="1.0" xmlns="http://www.w3.org/2000/svg"
 width="52.000000pt" height="75.000000pt" viewBox="0 0 52.000000 75.000000"
 preserveAspectRatio="xMidYMid meet">
<metadata>
Created by potrace 1.15, written by Peter Selinger 2001-2017
</metadata>
<g transform="translate(0.000000,75.000000) scale(0.100000,-0.100000)"
fill="#000000" stroke="none">
<path d="M16 711 c1 -37 15 -81 25 -81 5 0 9 -9 9 -20 0 -11 5 -20 10 -20 6 0
10 -6 10 -14 0 -8 9 -24 19 -37 20 -24 20 -24 38 -4 22 23 47 91 38 104 -3 5
-22 15 -43 22 -20 6 -41 18 -45 25 -4 8 -15 14 -24 14 -10 0 -14 6 -10 19 3
14 0 19 -12 18 -10 0 -16 -10 -15 -26z"/>
<path d="M475 728 c8 -21 -31 -56 -76 -68 -22 -6 -42 -16 -44 -23 -6 -16 20
-90 34 -95 35 -12 -4 -17 -116 -14 -71 1 -133 -1 -140 -5 -6 -5 -15 -29 -18
-54 -5 -40 -3 -50 21 -79 27 -32 27 -32 10 -65 -22 -41 -16 -92 15 -118 17
-15 18 -21 8 -33 -7 -8 -13 -37 -13 -65 0 -43 3 -53 32 -79 46 -41 94 -41 141
1 38 35 47 74 30 127 -9 27 -8 36 5 51 25 28 30 74 11 110 -16 32 -16 33 16
68 27 32 31 41 26 77 -5 32 -1 47 17 71 33 46 77 150 73 176 -2 13 -11 25 -20
27 -11 2 -15 -1 -12 -10z m-261 -215 c4 -4 22 -6 41 -4 l34 2 3 -52 3 -52 34
32 c28 26 31 34 21 46 -8 10 -21 13 -33 9 -14 -4 -18 -2 -15 7 7 23 52 22 72
0 36 -40 -18 -128 -72 -118 -25 5 -25 4 -7 -9 10 -8 22 -14 27 -14 9 0 38 -54
38 -70 0 -7 -16 -27 -36 -46 -33 -33 -37 -34 -57 -21 -18 12 -22 25 -23 66 -1
28 0 51 1 51 25 0 35 -17 35 -57 0 -50 18 -55 35 -9 8 23 6 30 -15 47 -45 35
-113 84 -134 96 -12 7 -17 13 -12 13 6 0 5 5 -2 12 -18 18 -15 55 6 67 20 12
46 14 56 4z"/>
</g>
</svg>
